# xmcd
#
# Track frame offsets: 
#        150
#        13179
#        25992
#        39798
#        52132
#        64674
#        76755
#        88376
#        99894
#        112606
#        124819
#        135759
#        149020
#        161262
#        173961
#        186381
#        199124
#        210969
#        222982
#        234701
#
# Disc length: 3316 seconds
#
# Revision: 3
# Processed by: cddbd v1.5.2PL0 Copyright (c) Steve Scherf et al.
# Submitted via: ExactAudioCopyFreeDBPlugin 1.0
#
DISCID=0e0cf214
DTITLE=Wynonie Harris - Wynonie Harris:  Rockin' the Blues [Proper Rec
DTITLE=ords]
DYEAR=2001
DGENRE=Rhythm and Blues
TTITLE0=Battle of the Blues, Part 1
TTITLE1=Battle of the Blues, Part 2
TTITLE2=Goin' Home
TTITLE3=Blues
TTITLE4=Love is Like Rain
TTITLE5=Rose Get Your Clothes
TTITLE6=Wynonie's Boogie
TTITLE7=Your Money Don't Mean a Thing
TTITLE8=Good Morning Mr. Blues
TTITLE9=Blow Your Brains Out
TTITLE10=Blowin' to California
TTITLE11=Crazy Love
TTITLE12=From Bad to Good Blues
TTITLE13=Bite Again, Bite Again
TTITLE14=Good Rockin' Tonight
TTITLE15=Lollipop Mama
TTITLE16=I Believe I'll Fall in Love
TTITLE17=Grandma Plays the Numbers
TTITLE18=She Just Won't Sell No More
TTITLE19=I Want My Fanny Brown
EXTD=YEAR: 2001
EXTT0=
EXTT1=
EXTT2=
EXTT3=
EXTT4=
EXTT5=
EXTT6=
EXTT7=
EXTT8=
EXTT9=
EXTT10=
EXTT11=
EXTT12=
EXTT13=
EXTT14=
EXTT15=
EXTT16=
EXTT17=
EXTT18=
EXTT19=
PLAYORDER=
